<svg width="120" height="120" fill="none" xmlns="http://www.w3.org/2000/svg">
    <symbol viewBox="50 -30 120 120" id="personalLogo">
        <path d="M49 25C49 38.2548 38.2548 49 25 49C11.7452 49 1 38.2548 1 25C1 11.7452 11.7452 1 25 1C38.2548 1 49 11.7452 49 25Z" fill="#F8F8F8" stroke="#292929" stroke-width="2"/>
        <path d="M25 45.5556C36.3525 45.5556 45.5556 36.3525 45.5556 25C45.5556 13.6475 36.3525 4.44446 25 4.44446C13.6475 4.44446 4.44446 13.6475 4.44446 25C4.44446 36.3525 13.6475 45.5556 25 45.5556Z" fill="#F8F8F8" stroke="#A81414" stroke-width="0.8"/>
        <path d="M20.8394 35.9965C22.7735 37.2443 24.7389 38.0658 26.7354 38.461C27.4113 38.5962 28.0976 38.6637 28.7944 38.6637C29.491 38.6637 30.2085 38.6013 30.9469 38.4765C31.6955 38.3414 32.3558 38.123 32.9278 37.8214C34.2172 37.1351 34.8619 36.0797 34.8619 34.6551C34.8619 33.1889 33.7805 32.1646 31.6176 31.5823C30.9833 31.4159 30.3074 31.2651 29.5899 31.1299L27.3594 30.74C24.5205 30.2512 22.5396 29.5337 21.4165 28.5875C20.3767 27.7244 19.8568 26.5598 19.8568 25.0936C19.8568 23.0971 20.8135 21.4801 22.7268 20.2426C24.4321 19.13 26.4443 18.5737 28.7631 18.5737C30.9885 18.5737 32.9902 18.9376 34.7683 19.6655C35.4026 19.9151 36.063 20.2271 36.7492 20.6014L35.6886 23.1438C34.1808 22.2392 32.4026 21.6517 30.3542 21.3813C29.7094 21.2877 29.0855 21.2409 28.4824 21.2409C27.0994 21.2409 25.8776 21.5061 24.8169 22.0364C23.5794 22.6603 22.9608 23.5234 22.9608 24.6256C22.9608 25.7903 23.7458 26.643 25.316 27.1837C26.0231 27.4333 26.8238 27.636 27.7181 27.792L30.4945 28.2755C32.8342 28.7123 34.4564 29.2062 35.361 29.7574C36.2658 30.3085 36.9312 30.9272 37.3576 31.6135C37.7943 32.2894 38.0127 33.1941 38.0127 34.3275C38.0127 35.4505 37.7475 36.4592 37.2172 37.3535C36.6869 38.2478 35.9798 38.9861 35.0959 39.5684C33.3697 40.7226 31.1704 41.2998 28.498 41.2998C26.0024 41.2998 23.6574 40.759 21.4633 39.6776C20.7458 39.324 20.0803 38.9185 19.4668 38.461L20.8394 35.9965Z" fill="#292929" fill-opacity="0.15"/>
        <path d="M13.9811 11.2467H22.7315C25.6847 11.2467 28.0452 11.9122 29.813 13.2433C31.7263 14.6783 32.683 16.7424 32.683 19.4356C32.683 22.2433 31.6743 24.479 29.657 26.1427C27.7436 27.7129 25.2896 28.498 22.2948 28.498H16.8667V33.3333H13.9811V11.2467ZM22.6847 25.8776C24.806 25.8776 26.4802 25.3472 27.7072 24.2866C28.9862 23.1843 29.6257 21.6297 29.6257 19.6228C29.6257 17.6991 28.9082 16.2328 27.4732 15.2242C26.1839 14.3195 24.4525 13.8672 22.2791 13.8672H16.8667V25.8776H22.6847Z" fill="#292929"/>
        <path d="M23.225 24.235C23.7217 24.235 24.1683 24.1683 24.565 24.035C24.965 23.905 25.3117 23.7317 25.605 23.515C25.8983 23.3017 26.135 23.07 26.315 22.82L25.48 22.275C25.2733 22.5217 24.9783 22.7417 24.595 22.935C24.215 23.1283 23.7617 23.225 23.235 23.225C22.755 23.225 22.3117 23.14 21.905 22.97C21.4983 22.8033 21.145 22.57 20.845 22.27C20.545 21.97 20.3117 21.6217 20.145 21.225C19.9783 20.8283 19.895 20.4017 19.895 19.945C19.895 19.495 19.975 19.0683 20.135 18.665C20.2983 18.2617 20.5283 17.905 20.825 17.595C21.1217 17.2817 21.4767 17.0367 21.89 16.86C22.3067 16.68 22.7667 16.59 23.27 16.59C23.6733 16.59 24.0733 16.6533 24.47 16.78C24.8667 16.9067 25.2283 17.1 25.555 17.36C25.8817 17.62 26.1417 17.95 26.335 18.35C26.5317 18.7467 26.63 19.2167 26.63 19.76C26.63 20.2033 26.5633 20.53 26.43 20.74C26.3 20.95 26.135 21.055 25.935 21.055C25.715 21.055 25.5617 20.9833 25.475 20.84C25.3883 20.6967 25.345 20.5317 25.345 20.345V17.945H24.535V18.64C24.3717 18.39 24.1517 18.1917 23.875 18.045C23.6017 17.895 23.2967 17.82 22.96 17.82C22.56 17.82 22.2033 17.9167 21.89 18.11C21.5767 18.3 21.33 18.5617 21.15 18.895C20.97 19.225 20.88 19.6 20.88 20.02C20.88 20.44 20.97 20.8167 21.15 21.15C21.3333 21.48 21.58 21.74 21.89 21.93C22.2 22.12 22.55 22.215 22.94 22.215C23.3167 22.215 23.6433 22.1283 23.92 21.955C24.2 21.7783 24.42 21.5533 24.58 21.28C24.7133 21.4367 24.8833 21.565 25.09 21.665C25.2967 21.765 25.53 21.815 25.79 21.815C26.1 21.815 26.38 21.7333 26.63 21.57C26.88 21.4067 27.0783 21.1667 27.225 20.85C27.375 20.53 27.45 20.1417 27.45 19.685C27.45 19.065 27.3367 18.5083 27.11 18.015C26.8867 17.5183 26.5783 17.0967 26.185 16.75C25.795 16.4 25.3467 16.1333 24.84 15.95C24.3333 15.7667 23.7983 15.675 23.235 15.675C22.6283 15.675 22.0583 15.7817 21.525 15.995C20.995 16.205 20.5283 16.5017 20.125 16.885C19.725 17.2683 19.4117 17.7217 19.185 18.245C18.9583 18.765 18.845 19.3367 18.845 19.96C18.845 20.5767 18.9567 21.145 19.18 21.665C19.4033 22.185 19.715 22.6367 20.115 23.02C20.515 23.4067 20.98 23.705 21.51 23.915C22.04 24.1283 22.6117 24.235 23.225 24.235ZM23.16 21.435C22.7667 21.435 22.44 21.3033 22.18 21.04C21.9233 20.7733 21.795 20.4333 21.795 20.02C21.795 19.5933 21.9267 19.2467 22.19 18.98C22.4533 18.71 22.78 18.575 23.17 18.575C23.56 18.575 23.885 18.71 24.145 18.98C24.4083 19.2467 24.54 19.59 24.54 20.01C24.54 20.4267 24.41 20.7683 24.15 21.035C23.8933 21.3017 23.5633 21.435 23.16 21.435Z" fill="black"/>
    </symbol>
</svg>
